<svg xmlns="http://www.w3.org/2000/svg" width="512" height="512" viewBox="0 0 512 512">
  <defs>
    <clipPath id="h2"><circle cx="256" cy="172" r="86"/></clipPath>
  </defs>
  <ellipse cx="256" cy="500" rx="92" ry="17" fill="#6d4a2a" opacity="0.50"/><ellipse cx="256" cy="497" rx="66" ry="12" fill="#8a5f38" opacity="0.55"/><ellipse cx="246" cy="494" rx="36" ry="8" fill="#a4794e" opacity="0.45"/>
  <g transform="rotate(-6 256 490)">
    <!-- soil clods: a big one broke loose -->
    <circle cx="192" cy="486" r="12" fill="#6d4a2a"/>
    <circle cx="318" cy="488" r="9" fill="#8a5f38"/>
    <circle cx="284" cy="497" r="7" fill="#6d4a2a"/>
    <!-- lumbering torso -->
    <path d="M192 482 C176 386 198 302 252 274 C314 258 344 324 332 414 C326 456 310 480 290 488 C254 498 212 494 192 482 Z"
          fill="#9DB07C" stroke="#3A2A1E" stroke-width="11" stroke-linejoin="round"/>
    <path d="M312 296 C332 336 338 390 330 432 C324 462 312 478 292 486 C312 458 322 396 310 340 C307 322 310 306 312 296 Z" fill="#7E9464"/>
    <!-- stitched belly patch -->
    <rect x="246" y="392" width="46" height="40" rx="6" fill="#8FA671" stroke="#62784A" stroke-width="5"/>
    <path d="M246 402 L236 397 M246 422 L236 427 M292 402 L302 397 M292 422 L302 427" stroke="#62784A" stroke-width="5" stroke-linecap="round"/>
    <!-- both arms hauling forward -->
    <path d="M212 330 C162 316 116 328 88 360 C118 378 172 374 212 352 Z" fill="#7A8F5C" stroke="#3A2A1E" stroke-width="10" stroke-linejoin="round"/>
    <path d="M212 376 C176 372 146 384 128 408 C150 420 188 414 214 396 Z" fill="#6E8258" stroke="#3A2A1E" stroke-width="10" stroke-linejoin="round"/>
    <!-- head, sunk into the shoulders -->
    <g transform="translate(0 30)">
      <circle cx="256" cy="172" r="86" fill="#9DB07C" stroke="#3A2A1E" stroke-width="11"/>
      <ellipse cx="262" cy="240" rx="82" ry="36" fill="#7E9464" clip-path="url(#h2)"/>
      <ellipse cx="222" cy="122" rx="30" ry="17" fill="#B8C79A"/>
      <circle cx="256" cy="172" r="86" fill="none" stroke="#3A2A1E" stroke-width="11"/>
      <!-- big X eyes -->
      <g stroke="#2B2118" stroke-width="11" stroke-linecap="round">
        <path d="M204 142 L234 170"/><path d="M204 170 L234 142"/>
        <path d="M280 150 L310 178"/><path d="M280 178 L310 150"/>
      </g>
      <!-- heavy jaw mouth + tooth -->
      <path d="M222 218 Q260 230 300 214" stroke="#2B2118" stroke-width="9" fill="none" stroke-linecap="round"/>
      <rect x="264" y="220" width="15" height="15" rx="2" transform="rotate(6 271 227)" fill="#F4EFE2" stroke="#3A2A1E" stroke-width="4.5"/>
      <!-- brow dent + cheek stitch -->
      <path d="M240 108 Q256 100 274 106" stroke="#7E9464" stroke-width="7" fill="none" stroke-linecap="round"/>
      <g stroke="#62784A" stroke-width="6" stroke-linecap="round">
        <path d="M306 190 L328 204"/><path d="M312 199 L318 190"/><path d="M321 205 L327 196"/>
      </g>
      <!-- the big receipt hat -->
      <g transform="rotate(-18 250 78)">
        <path d="M186 36 L330 36 L330 96 L320 110 L310 96 L300 110 L290 96 L280 110 L270 96 L260 110 L250 96 L240 110 L230 96 L220 110 L210 96 L200 110 L190 96 L186 92 Z"
              fill="#F4EFE2" stroke="#3A2A1E" stroke-width="9" stroke-linejoin="round"/>
        <path d="M198 54 L318 54" stroke="#D8CFB8" stroke-width="5"/>
        <path d="M198 66 L292 66" stroke="#D8CFB8" stroke-width="5"/>
        <path d="M198 78 L266 78" stroke="#D8CFB8" stroke-width="5"/>
        <path d="M240 92 q10 -7 20 0 q10 7 20 0" stroke="#C64545" stroke-width="6" fill="none" stroke-linecap="round"/>
      </g>
      <!-- two flies for the big one -->
      <path d="M352 96 a30 20 0 1 1 -8 -32" stroke="#3A2A1E" stroke-width="2.5" stroke-dasharray="4 7" fill="none" opacity="0.5"/>
      <circle cx="354" cy="94" r="6" fill="#3A2A1E"/>
      <circle cx="350" cy="87" r="3.4" fill="#B8C79A" opacity="0.9"/>
      <circle cx="148" cy="220" r="5" fill="#3A2A1E"/>
      <circle cx="144" cy="214" r="2.8" fill="#B8C79A" opacity="0.9"/>
    </g>
  </g>
</svg>
